{
    "asset" : {
        "generator" : "Khronos glTF Blender I/O v3.2.43",
        "version" : "2.0"
    },
    "scene" : 0,
    "scenes" : [
        {
            "extras" : {
                "thermal_tool" : {
                    "t_01_kelvin" : 300.0,
                    "t_02_temperature_fixed" : 1,
                    "t_03_diffuse_reflectance" : 0.25,
                    "t_11_traceable" : 1,
                    "t_05_diffuse_emission" : 0,
                    "t_04_specular_reflectance" : 0.5,
                    "t_07_thickness" : 0.10000000149011612,
                    "t_08_density" : 1000.0,
                    "t_09_heat_capacity" : 1000.0,
                    "t_10_heat_conductivity" : 1.0
                },
                "uuid" : "fae35cd4-970e-4061-8e69-78d183c19b9a",
                "assets reported" : {}
            },
            "name" : "Scene",
            "nodes" : [
                0,
                1,
                2,
                3
            ]
        }
    ],
    "nodes" : [
        {
            "mesh" : 0,
            "name" : "Plane",
            "scale" : [
                1,
                1,
                2
            ]
        },
        {
            "mesh" : 1,
            "name" : "Circle.001",
            "scale" : [
                0.5,
                0.5,
                0.5
            ],
            "translation" : [
                0,
                0,
                0.9000000357627869
            ]
        },
        {
            "mesh" : 2,
            "name" : "Plane.001",
            "rotation" : [
                0.9396926164627075,
                0,
                0,
                0.3420201539993286
            ],
            "scale" : [
                1,
                1,
                2
            ],
            "translation" : [
                0,
                3,
                -2.6075022220611572
            ]
        },
        {
            "mesh" : 3,
            "name" : "Circle.002",
            "scale" : [
                0.5,
                0.5,
                0.5
            ],
            "translation" : [
                0,
                0,
                -0.9000000357627869
            ]
        }
    ],
    "meshes" : [
        {
            "extras" : {
                "kelvin" : 0.0,
                "temperature-fixed" : 0,
                "diffuse-reflectance" : 0.30000001192092896,
                "specular-reflectance" : 0.0,
                "diffuse-emission" : 1,
                "thickness" : 0.10000000149011612,
                "density" : 1000.0,
                "heat-capacity" : 1000.0,
                "animation-index" : -1.0,
                "heat-conductivity" : 1.0,
                "traceable" : 1
            },
            "name" : "Plane",
            "primitives" : [
                {
                    "attributes" : {
                        "POSITION" : 0,
                        "NORMAL" : 1
                    },
                    "indices" : 2
                }
            ]
        },
        {
            "extras" : {
                "kelvin" : 0.0,
                "temperature-fixed" : 0,
                "diffuse-reflectance" : 0.20000000298023224,
                "specular-reflectance" : 0.6000000238418579,
                "diffuse-emission" : 1,
                "thickness" : 0.10000000149011612,
                "density" : 1000.0,
                "heat-capacity" : 1000.0,
                "animation-index" : -1.0,
                "heat-conductivity" : 1.0,
                "traceable" : 1
            },
            "name" : "Circle.001",
            "primitives" : [
                {
                    "attributes" : {
                        "POSITION" : 3,
                        "NORMAL" : 4
                    },
                    "indices" : 5
                }
            ]
        },
        {
            "extras" : {
                "kelvin" : 300.0,
                "temperature-fixed" : 1,
                "diffuse-reflectance" : 0.0,
                "specular-reflectance" : 0.0,
                "diffuse-emission" : 0,
                "thickness" : 0.10000000149011612,
                "density" : 1000.0,
                "heat-capacity" : 1000.0,
                "animation-index" : -1.0,
                "heat-conductivity" : 1.0,
                "traceable" : 0
            },
            "name" : "Plane.001",
            "primitives" : [
                {
                    "attributes" : {
                        "POSITION" : 6,
                        "NORMAL" : 7
                    },
                    "indices" : 8
                }
            ]
        },
        {
            "extras" : {
                "kelvin" : 0.0,
                "temperature-fixed" : 0,
                "diffuse-reflectance" : 0.30000001192092896,
                "specular-reflectance" : 0.30000001192092896,
                "diffuse-emission" : 1,
                "thickness" : 0.10000000149011612,
                "density" : 1000.0,
                "heat-capacity" : 1000.0,
                "animation-index" : -1.0,
                "heat-conductivity" : 1.0,
                "traceable" : 1
            },
            "name" : "Circle.002",
            "primitives" : [
                {
                    "attributes" : {
                        "POSITION" : 9,
                        "NORMAL" : 10
                    },
                    "indices" : 5
                }
            ]
        }
    ],
    "accessors" : [
        {
            "bufferView" : 0,
            "componentType" : 5126,
            "count" : 2145,
            "max" : [
                1.0000001192092896,
                0,
                1.0000001192092896
            ],
            "min" : [
                -1.0000001192092896,
                0,
                -1.0000001192092896
            ],
            "type" : "VEC3"
        },
        {
            "bufferView" : 1,
            "componentType" : 5126,
            "count" : 2145,
            "type" : "VEC3"
        },
        {
            "bufferView" : 2,
            "componentType" : 5123,
            "count" : 12288,
            "type" : "SCALAR"
        },
        {
            "bufferView" : 3,
            "componentType" : 5126,
            "count" : 768,
            "max" : [
                1.0000001192092896,
                0.6000000834465027,
                1.0000001192092896
            ],
            "min" : [
                -1.0000001192092896,
                0,
                -1.0000001192092896
            ],
            "type" : "VEC3"
        },
        {
            "bufferView" : 4,
            "componentType" : 5126,
            "count" : 768,
            "type" : "VEC3"
        },
        {
            "bufferView" : 5,
            "componentType" : 5123,
            "count" : 4608,
            "type" : "SCALAR"
        },
        {
            "bufferView" : 6,
            "componentType" : 5126,
            "count" : 6,
            "max" : [
                1,
                0,
                1
            ],
            "min" : [
                -1,
                0,
                -1
            ],
            "type" : "VEC3"
        },
        {
            "bufferView" : 7,
            "componentType" : 5126,
            "count" : 6,
            "type" : "VEC3"
        },
        {
            "bufferView" : 8,
            "componentType" : 5123,
            "count" : 12,
            "type" : "SCALAR"
        },
        {
            "bufferView" : 9,
            "componentType" : 5126,
            "count" : 768,
            "max" : [
                1.0000001192092896,
                0.6000000834465027,
                1.0000001192092896
            ],
            "min" : [
                -1.0000001192092896,
                0,
                -1.0000001192092896
            ],
            "type" : "VEC3"
        },
        {
            "bufferView" : 10,
            "componentType" : 5126,
            "count" : 768,
            "type" : "VEC3"
        }
    ],
    "bufferViews" : [
        {
            "buffer" : 0,
            "byteLength" : 25740,
            "byteOffset" : 0
        },
        {
            "buffer" : 0,
            "byteLength" : 25740,
            "byteOffset" : 25740
        },
        {
            "buffer" : 0,
            "byteLength" : 24576,
            "byteOffset" : 51480
        },
        {
            "buffer" : 0,
            "byteLength" : 9216,
            "byteOffset" : 76056
        },
        {
            "buffer" : 0,
            "byteLength" : 9216,
            "byteOffset" : 85272
        },
        {
            "buffer" : 0,
            "byteLength" : 9216,
            "byteOffset" : 94488
        },
        {
            "buffer" : 0,
            "byteLength" : 72,
            "byteOffset" : 103704
        },
        {
            "buffer" : 0,
            "byteLength" : 72,
            "byteOffset" : 103776
        },
        {
            "buffer" : 0,
            "byteLength" : 24,
            "byteOffset" : 103848
        },
        {
            "buffer" : 0,
            "byteLength" : 9216,
            "byteOffset" : 103872
        },
        {
            "buffer" : 0,
            "byteLength" : 9216,
            "byteOffset" : 113088
        }
    ],
    "buffers" : [
        {
            "byteLength" : 122304,
            "uri" : "data:application/octet-stream;base64,"
        }
    ]
}
