{
    "asset" : {
        "generator" : "Khronos glTF Blender I/O v1.5.17",
        "version" : "2.0"
    },
    "extensionsUsed" : [
        "KHR_lights_punctual"
    ],
    "extensionsRequired" : [
        "KHR_lights_punctual"
    ],
    "extensions" : {
        "KHR_lights_punctual" : {
            "lights" : [
                {
                    "color" : [
                        1,
                        1,
                        1
                    ],
                    "intensity" : 1000,
                    "type" : "point",
                    "name" : "Light"
                }
            ]
        }
    },
    "scene" : 0,
    "scenes" : [
        {
            "extras" : {
                "thermal_tool" : {
                    "t_07_thickness" : 0.10000000149011612,
                    "t_08_density" : 1000,
                    "t_09_heat_capacity" : 1000,
                    "t_01_kelvin" : 300,
                    "t_02_temperature_fixed" : 1
                },
                "glTF2ExportSettings" : {
                    "export_animations" : 0,
                    "export_cameras" : 1,
                    "export_colors" : 0,
                    "export_extras" : 1,
                    "export_format" : "GLTF_EMBEDDED",
                    "export_lights" : 1,
                    "export_morph" : 0,
                    "export_skins" : 0,
                    "export_tangents" : 0,
                    "export_texcoords" : 0
                }
            },
            "name" : "Scene",
            "nodes" : [
                1,
                3,
                4,
                5,
                6
            ]
        }
    ],
    "nodes" : [
        {
            "extensions" : {
                "KHR_lights_punctual" : {
                    "light" : 0
                }
            },
            "name" : "Light_Orientation",
            "rotation" : [
                -0.7071067690849304,
                0,
                0,
                0.7071067690849304
            ]
        },
        {
            "children" : [
                0
            ],
            "name" : "Light",
            "rotation" : [
                0.16907575726509094,
                0.7558803558349609,
                -0.27217137813568115,
                0.570947527885437
            ],
            "translation" : [
                4.076245307922363,
                5.903861999511719,
                -1.0054539442062378
            ]
        },
        {
            "camera" : 0,
            "name" : "Camera_Orientation",
            "rotation" : [
                -0.7071067690849304,
                0,
                0,
                0.7071067690849304
            ]
        },
        {
            "children" : [
                2
            ],
            "name" : "Camera",
            "rotation" : [
                0.483536034822464,
                0.33687159419059753,
                -0.20870360732078552,
                0.7804827094078064
            ],
            "translation" : [
                7.358891487121582,
                4.958309173583984,
                6.925790786743164
            ]
        },
        {
            "mesh" : 0,
            "name" : "Ground"
        },
        {
            "mesh" : 1,
            "name" : "Sphere"
        },
        {
            "mesh" : 2,
            "name" : "Emitter"
        }
    ],
    "cameras" : [
        {
            "name" : "Camera",
            "perspective" : {
                "aspectRatio" : 1.7777777777777777,
                "yfov" : 0.39959652046304894,
                "zfar" : 100,
                "znear" : 0.10000000149011612
            },
            "type" : "perspective"
        }
    ],
    "meshes" : [
        {
            "extras" : {
                "kelvin" : 0,
                "temperature-fixed" : 0,
                "diffuse-reflectance" : 0.5,
                "specular-reflectance" : 0,
                "diffuse-emission" : 1,
                "thickness" : 0.10000000149011612,
                "density" : 1000,
                "heat-capacity" : 1000,
                "animation-index" : -1,
                "heat-conductivity" : 0,
                "traceable" : 1
            },
            "name" : "Ground",
            "primitives" : [
                {
                    "attributes" : {
                        "POSITION" : 0,
                        "NORMAL" : 1
                    },
                    "indices" : 2
                }
            ]
        },
        {
            "extras" : {
                "kelvin" : 0,
                "temperature-fixed" : 0,
                "diffuse-reflectance" : 0.5,
                "specular-reflectance" : 0,
                "diffuse-emission" : 1,
                "thickness" : 0.10000000149011612,
                "density" : 1000,
                "heat-capacity" : 1000,
                "animation-index" : -1,
                "heat-conductivity" : 0,
                "traceable" : 1
            },
            "name" : "Sphere",
            "primitives" : [
                {
                    "attributes" : {
                        "POSITION" : 3,
                        "NORMAL" : 4
                    },
                    "indices" : 5
                }
            ]
        },
        {
            "extras" : {
                "kelvin" : 300,
                "temperature-fixed" : 1,
                "diffuse-reflectance" : 0.5,
                "specular-reflectance" : 0,
                "diffuse-emission" : 1,
                "thickness" : 0.10000000149011612,
                "density" : 1000,
                "heat-capacity" : 1000,
                "animation-index" : -1,
                "heat-conductivity" : 0,
                "traceable" : 1
            },
            "name" : "Emitter",
            "primitives" : [
                {
                    "attributes" : {
                        "POSITION" : 6,
                        "NORMAL" : 7
                    },
                    "indices" : 8
                }
            ]
        }
    ],
    "accessors" : [
        {
            "bufferView" : 0,
            "componentType" : 5126,
            "count" : 825,
            "max" : [
                6,
                -2.9000000953674316,
                4
            ],
            "min" : [
                -4,
                -2.9000000953674316,
                -6
            ],
            "type" : "VEC3"
        },
        {
            "bufferView" : 1,
            "componentType" : 5126,
            "count" : 825,
            "type" : "VEC3"
        },
        {
            "bufferView" : 2,
            "componentType" : 5123,
            "count" : 4644,
            "type" : "SCALAR"
        },
        {
            "bufferView" : 3,
            "componentType" : 5126,
            "count" : 112,
            "max" : [
                2.0832889080047607,
                -0.6000000238418579,
                0.0963500514626503
            ],
            "min" : [
                -0.08643507212400436,
                -2.799999952316284,
                -2.0998919010162354
            ],
            "type" : "VEC3"
        },
        {
            "bufferView" : 4,
            "componentType" : 5126,
            "count" : 112,
            "type" : "VEC3"
        },
        {
            "bufferView" : 5,
            "componentType" : 5123,
            "count" : 660,
            "type" : "SCALAR"
        },
        {
            "bufferView" : 6,
            "componentType" : 5126,
            "count" : 130,
            "max" : [
                3,
                1,
                1
            ],
            "min" : [
                -1,
                1,
                -3
            ],
            "type" : "VEC3"
        },
        {
            "bufferView" : 7,
            "componentType" : 5126,
            "count" : 130,
            "type" : "VEC3"
        },
        {
            "bufferView" : 8,
            "componentType" : 5123,
            "count" : 654,
            "type" : "SCALAR"
        }
    ],
    "bufferViews" : [
        {
            "buffer" : 0,
            "byteLength" : 9900,
            "byteOffset" : 0
        },
        {
            "buffer" : 0,
            "byteLength" : 9900,
            "byteOffset" : 9900
        },
        {
            "buffer" : 0,
            "byteLength" : 9288,
            "byteOffset" : 19800
        },
        {
            "buffer" : 0,
            "byteLength" : 1344,
            "byteOffset" : 29088
        },
        {
            "buffer" : 0,
            "byteLength" : 1344,
            "byteOffset" : 30432
        },
        {
            "buffer" : 0,
            "byteLength" : 1320,
            "byteOffset" : 31776
        },
        {
            "buffer" : 0,
            "byteLength" : 1560,
            "byteOffset" : 33096
        },
        {
            "buffer" : 0,
            "byteLength" : 1560,
            "byteOffset" : 34656
        },
        {
            "buffer" : 0,
            "byteLength" : 1308,
            "byteOffset" : 36216
        }
    ],
    "buffers" : [
        {
            "byteLength" : 37524,
            "uri" : "data:application/octet-stream;base64,"
        }
    ]
}
