{
    "asset" : {
        "generator" : "Khronos glTF Blender I/O v1.5.17",
        "version" : "2.0"
    },
    "extensionsUsed" : [
        "KHR_lights_punctual"
    ],
    "extensionsRequired" : [
        "KHR_lights_punctual"
    ],
    "extensions" : {
        "KHR_lights_punctual" : {
            "lights" : [
                {
                    "color" : [
                        1,
                        1,
                        1
                    ],
                    "intensity" : 1000,
                    "type" : "point",
                    "name" : "Light"
                }
            ]
        }
    },
    "scene" : 0,
    "scenes" : [
        {
            "extras" : {
                "thermal_tool" : {
                    "t_01_kelvin" : 300,
                    "t_02_temperature_fixed" : 1,
                    "t_03_diffuse_reflectance" : 0,
                    "t_11_traceable" : 0,
                    "t_04_specular_reflectance" : 0,
                    "t_05_diffuse_emission" : 0
                },
                "glTF2ExportSettings" : {
                    "export_animations" : 0,
                    "export_cameras" : 1,
                    "export_colors" : 0,
                    "export_extras" : 1,
                    "export_format" : "GLTF_EMBEDDED",
                    "export_lights" : 1,
                    "export_morph" : 0,
                    "export_skins" : 0,
                    "export_texcoords" : 0
                }
            },
            "name" : "Scene",
            "nodes" : [
                1,
                3,
                4,
                5,
                6
            ]
        }
    ],
    "nodes" : [
        {
            "extensions" : {
                "KHR_lights_punctual" : {
                    "light" : 0
                }
            },
            "name" : "Light_Orientation",
            "rotation" : [
                -0.7071067690849304,
                0,
                0,
                0.7071067690849304
            ]
        },
        {
            "children" : [
                0
            ],
            "name" : "Light",
            "rotation" : [
                0.16907575726509094,
                0.7558803558349609,
                -0.27217137813568115,
                0.570947527885437
            ],
            "translation" : [
                4.076245307922363,
                5.903861999511719,
                -1.0054539442062378
            ]
        },
        {
            "camera" : 0,
            "name" : "Camera_Orientation",
            "rotation" : [
                -0.7071067690849304,
                0,
                0,
                0.7071067690849304
            ]
        },
        {
            "children" : [
                2
            ],
            "name" : "Camera",
            "rotation" : [
                0.483536034822464,
                0.33687159419059753,
                -0.20870360732078552,
                0.7804827094078064
            ],
            "translation" : [
                7.358891487121582,
                4.958309173583984,
                6.925790786743164
            ]
        },
        {
            "mesh" : 0,
            "name" : "Plane"
        },
        {
            "mesh" : 1,
            "name" : "Plane.002"
        },
        {
            "mesh" : 2,
            "name" : "Plane.003",
            "translation" : [
                0.7900046110153198,
                1.3622740507125854,
                0.9276574850082397
            ]
        }
    ],
    "cameras" : [
        {
            "name" : "Camera",
            "perspective" : {
                "aspectRatio" : 1.7777777777777777,
                "yfov" : 0.39959652046304894,
                "zfar" : 100,
                "znear" : 0.10000000149011612
            },
            "type" : "perspective"
        }
    ],
    "meshes" : [
        {
            "extras" : {
                "kelvin" : 0,
                "temperature-fixed" : 0,
                "diffuse-reflectance" : 0.5,
                "specular-reflectance" : 0,
                "diffuse-emission" : 1,
                "thickness" : 1,
                "density" : 1,
                "heat-capacity" : 1,
                "heat-conductivity" : 0,
                "traceable" : 1
            },
            "name" : "Plane.008",
            "primitives" : [
                {
                    "attributes" : {
                        "POSITION" : 0,
                        "NORMAL" : 1
                    },
                    "indices" : 2
                }
            ]
        },
        {
            "extras" : {
                "kelvin" : 0,
                "temperature-fixed" : 0,
                "diffuse-reflectance" : 0,
                "specular-reflectance" : 1,
                "diffuse-emission" : 1,
                "thickness" : 1,
                "density" : 1,
                "heat-capacity" : 1,
                "heat-conductivity" : 0,
                "traceable" : 1
            },
            "name" : "Plane.007",
            "primitives" : [
                {
                    "attributes" : {
                        "POSITION" : 3,
                        "NORMAL" : 4
                    },
                    "indices" : 5
                }
            ]
        },
        {
            "extras" : {
                "kelvin" : 300,
                "temperature-fixed" : 1,
                "diffuse-reflectance" : 0.5,
                "specular-reflectance" : 0,
                "diffuse-emission" : 0,
                "thickness" : 1,
                "density" : 1,
                "heat-capacity" : 1,
                "heat-conductivity" : 0,
                "traceable" : 0
            },
            "name" : "Plane.006",
            "primitives" : [
                {
                    "attributes" : {
                        "POSITION" : 6,
                        "NORMAL" : 7
                    },
                    "indices" : 8
                }
            ]
        }
    ],
    "accessors" : [
        {
            "bufferView" : 0,
            "componentType" : 5126,
            "count" : 443,
            "max" : [
                1.0000001192092896,
                1,
                1.0000001192092896
            ],
            "min" : [
                -1.0000001192092896,
                0,
                -1.0000001192092896
            ],
            "type" : "VEC3"
        },
        {
            "bufferView" : 1,
            "componentType" : 5126,
            "count" : 443,
            "type" : "VEC3"
        },
        {
            "bufferView" : 2,
            "componentType" : 5123,
            "count" : 2430,
            "type" : "SCALAR"
        },
        {
            "bufferView" : 3,
            "componentType" : 5126,
            "count" : 65,
            "max" : [
                0.1250000298023224,
                0.966720461845398,
                2.9802322387695312e-08
            ],
            "min" : [
                -0.2500000596046448,
                0,
                -0.37500008940696716
            ],
            "type" : "VEC3"
        },
        {
            "bufferView" : 4,
            "componentType" : 5126,
            "count" : 65,
            "type" : "VEC3"
        },
        {
            "bufferView" : 5,
            "componentType" : 5123,
            "count" : 348,
            "type" : "SCALAR"
        },
        {
            "bufferView" : 6,
            "componentType" : 5126,
            "count" : 4,
            "max" : [
                1.0207247734069824,
                1.0788816213607788,
                0.9786860942840576
            ],
            "min" : [
                -1.0207247734069824,
                -1.0788817405700684,
                -0.9786864519119263
            ],
            "type" : "VEC3"
        },
        {
            "bufferView" : 7,
            "componentType" : 5126,
            "count" : 4,
            "type" : "VEC3"
        },
        {
            "bufferView" : 8,
            "componentType" : 5123,
            "count" : 6,
            "type" : "SCALAR"
        }
    ],
    "bufferViews" : [
        {
            "buffer" : 0,
            "byteLength" : 5316,
            "byteOffset" : 0
        },
        {
            "buffer" : 0,
            "byteLength" : 5316,
            "byteOffset" : 5316
        },
        {
            "buffer" : 0,
            "byteLength" : 4860,
            "byteOffset" : 10632
        },
        {
            "buffer" : 0,
            "byteLength" : 780,
            "byteOffset" : 15492
        },
        {
            "buffer" : 0,
            "byteLength" : 780,
            "byteOffset" : 16272
        },
        {
            "buffer" : 0,
            "byteLength" : 696,
            "byteOffset" : 17052
        },
        {
            "buffer" : 0,
            "byteLength" : 48,
            "byteOffset" : 17748
        },
        {
            "buffer" : 0,
            "byteLength" : 48,
            "byteOffset" : 17796
        },
        {
            "buffer" : 0,
            "byteLength" : 12,
            "byteOffset" : 17844
        }
    ],
    "buffers" : [
        {
            "byteLength" : 17856,
            "uri" : "data:application/octet-stream;base64,"
        }
    ]
}
