{
    "asset" : {
        "generator" : "Khronos glTF Blender I/O v1.5.17",
        "version" : "2.0"
    },
    "extensionsUsed" : [
        "KHR_lights_punctual"
    ],
    "extensionsRequired" : [
        "KHR_lights_punctual"
    ],
    "extensions" : {
        "KHR_lights_punctual" : {
            "lights" : [
                {
                    "color" : [
                        1,
                        1,
                        1
                    ],
                    "intensity" : 1000,
                    "type" : "point",
                    "name" : "Light"
                }
            ]
        }
    },
    "scene" : 0,
    "scenes" : [
        {
            "extras" : {
                "glTF2ExportSettings" : {
                    "export_animations" : 0,
                    "export_cameras" : 1,
                    "export_colors" : 0,
                    "export_extras" : 1,
                    "export_format" : "GLTF_EMBEDDED",
                    "export_lights" : 1,
                    "export_morph" : 0,
                    "export_skins" : 0,
                    "export_texcoords" : 0
                },
                "thermal_tool" : {
                    "t_10_heat_conductivity" : 0,
                    "t_01_kelvin" : 300
                }
            },
            "name" : "Scene",
            "nodes" : [
                1,
                3,
                4,
                5
            ]
        }
    ],
    "nodes" : [
        {
            "extensions" : {
                "KHR_lights_punctual" : {
                    "light" : 0
                }
            },
            "name" : "Light_Orientation",
            "rotation" : [
                -0.7071067690849304,
                0,
                0,
                0.7071067690849304
            ]
        },
        {
            "children" : [
                0
            ],
            "name" : "Light",
            "rotation" : [
                0.16907575726509094,
                0.7558803558349609,
                -0.27217137813568115,
                0.570947527885437
            ],
            "translation" : [
                4.076245307922363,
                5.903861999511719,
                -1.0054539442062378
            ]
        },
        {
            "camera" : 0,
            "name" : "Camera_Orientation",
            "rotation" : [
                -0.7071067690849304,
                0,
                0,
                0.7071067690849304
            ]
        },
        {
            "children" : [
                2
            ],
            "name" : "Camera",
            "rotation" : [
                0.483536034822464,
                0.33687159419059753,
                -0.20870360732078552,
                0.7804827094078064
            ],
            "translation" : [
                7.358891487121582,
                4.958309173583984,
                6.925790786743164
            ]
        },
        {
            "mesh" : 0,
            "name" : "Icosphere",
            "rotation" : [
                -0.2741071879863739,
                0.17659705877304077,
                -0.7537358403205872,
                0.5705795288085938
            ],
            "scale" : [
                2,
                2,
                2
            ]
        },
        {
            "mesh" : 1,
            "name" : "Icosphere.001",
            "rotation" : [
                -0.6535608768463135,
                -0.5789058208465576,
                0.4733192026615143,
                0.11702637374401093
            ],
            "scale" : [
                0.19999998807907104,
                0.2000000774860382,
                0.20000004768371582
            ]
        }
    ],
    "cameras" : [
        {
            "name" : "Camera",
            "perspective" : {
                "aspectRatio" : 1.7777777777777777,
                "yfov" : 0.39959652046304894,
                "zfar" : 100,
                "znear" : 0.10000000149011612
            },
            "type" : "perspective"
        }
    ],
    "meshes" : [
        {
            "extras" : {
                "kelvin" : 0,
                "temperature-fixed" : 0,
                "diffuse-reflectance" : 0.5,
                "specular-reflectance" : 0,
                "specular-emission" : 0,
                "thickness" : 1,
                "density" : 1,
                "heat-capacity" : 1,
                "heat-conductivity" : 0,
                "traceable" : 0
            },
            "name" : "Icosphere",
            "primitives" : [
                {
                    "attributes" : {
                        "POSITION" : 0,
                        "NORMAL" : 1
                    },
                    "indices" : 2
                }
            ]
        },
        {
            "extras" : {
                "kelvin" : 300,
                "temperature-fixed" : 0,
                "diffuse-reflectance" : 0.5,
                "specular-reflectance" : 0,
                "specular-emission" : 0,
                "thickness" : 1,
                "density" : 1,
                "heat-capacity" : 1,
                "heat-conductivity" : 0,
                "traceable" : 0
            },
            "name" : "Icosphere.001",
            "primitives" : [
                {
                    "attributes" : {
                        "POSITION" : 3,
                        "NORMAL" : 4
                    },
                    "indices" : 5
                }
            ]
        }
    ],
    "accessors" : [
        {
            "bufferView" : 0,
            "componentType" : 5126,
            "count" : 15,
            "max" : [
                0.9961541891098022,
                1.0252197980880737,
                0.8957511186599731
            ],
            "min" : [
                -0.9961540699005127,
                -1.0252199172973633,
                -0.8957511186599731
            ],
            "type" : "VEC3"
        },
        {
            "bufferView" : 1,
            "componentType" : 5126,
            "count" : 15,
            "type" : "VEC3"
        },
        {
            "bufferView" : 2,
            "componentType" : 5123,
            "count" : 78,
            "type" : "SCALAR"
        },
        {
            "bufferView" : 3,
            "componentType" : 5126,
            "count" : 15,
            "max" : [
                0.9961541891098022,
                1.0252197980880737,
                0.8957511186599731
            ],
            "min" : [
                -0.9961540699005127,
                -1.0252199172973633,
                -0.8957511186599731
            ],
            "type" : "VEC3"
        },
        {
            "bufferView" : 4,
            "componentType" : 5126,
            "count" : 15,
            "type" : "VEC3"
        },
        {
            "bufferView" : 5,
            "componentType" : 5123,
            "count" : 78,
            "type" : "SCALAR"
        }
    ],
    "bufferViews" : [
        {
            "buffer" : 0,
            "byteLength" : 180,
            "byteOffset" : 0
        },
        {
            "buffer" : 0,
            "byteLength" : 180,
            "byteOffset" : 180
        },
        {
            "buffer" : 0,
            "byteLength" : 156,
            "byteOffset" : 360
        },
        {
            "buffer" : 0,
            "byteLength" : 180,
            "byteOffset" : 516
        },
        {
            "buffer" : 0,
            "byteLength" : 180,
            "byteOffset" : 696
        },
        {
            "buffer" : 0,
            "byteLength" : 156,
            "byteOffset" : 876
        }
    ],
    "buffers" : [
        {
            "byteLength" : 1032,
            "uri" : "data:application/octet-stream;base64,"
        }
    ]
}
