{
    "asset" : {
        "generator" : "Khronos glTF Blender I/O v1.5.17",
        "version" : "2.0"
    },
    "extensionsUsed" : [
        "KHR_lights_punctual"
    ],
    "extensionsRequired" : [
        "KHR_lights_punctual"
    ],
    "extensions" : {
        "KHR_lights_punctual" : {
            "lights" : [
                {
                    "color" : [
                        1,
                        1,
                        1
                    ],
                    "intensity" : 1000,
                    "type" : "point",
                    "name" : "Light"
                }
            ]
        }
    },
    "scene" : 0,
    "scenes" : [
        {
            "extras" : {
                "thermal_tool" : {
                    "t_03_diffuse_reflectance" : 0.5,
                    "t_07_thickness" : 0.05000000074505806,
                    "t_10_heat_conductivity" : 10000,
                    "t_01_kelvin" : 300,
                    "t_02_temperature_fixed" : 0,
                    "t_08_density" : 100,
                    "t_09_heat_capacity" : 100
                },
                "glTF2ExportSettings" : {
                    "export_animations" : 0,
                    "export_cameras" : 1,
                    "export_colors" : 0,
                    "export_extras" : 1,
                    "export_format" : "GLTF_EMBEDDED",
                    "export_lights" : 1,
                    "export_morph" : 0,
                    "export_skins" : 0,
                    "export_texcoords" : 0
                }
            },
            "name" : "Scene",
            "nodes" : [
                1,
                3,
                4,
                5
            ]
        }
    ],
    "nodes" : [
        {
            "extensions" : {
                "KHR_lights_punctual" : {
                    "light" : 0
                }
            },
            "name" : "Light_Orientation",
            "rotation" : [
                -0.7071067690849304,
                0,
                0,
                0.7071067690849304
            ]
        },
        {
            "children" : [
                0
            ],
            "name" : "Light",
            "rotation" : [
                0.16907575726509094,
                0.7558803558349609,
                -0.27217137813568115,
                0.570947527885437
            ],
            "translation" : [
                4.076245307922363,
                5.903861999511719,
                -1.0054539442062378
            ]
        },
        {
            "camera" : 0,
            "name" : "Camera_Orientation",
            "rotation" : [
                -0.7071067690849304,
                0,
                0,
                0.7071067690849304
            ]
        },
        {
            "children" : [
                2
            ],
            "name" : "Camera",
            "rotation" : [
                0.483536034822464,
                0.33687159419059753,
                -0.20870360732078552,
                0.7804827094078064
            ],
            "translation" : [
                7.358891487121582,
                4.958309173583984,
                6.925790786743164
            ]
        },
        {
            "mesh" : 0,
            "name" : "Inner"
        },
        {
            "mesh" : 1,
            "name" : "Outer"
        }
    ],
    "cameras" : [
        {
            "name" : "Camera",
            "perspective" : {
                "aspectRatio" : 1.7777777777777777,
                "yfov" : 0.39959652046304894,
                "zfar" : 100,
                "znear" : 0.10000000149011612
            },
            "type" : "perspective"
        }
    ],
    "meshes" : [
        {
            "extras" : {
                "kelvin" : 300,
                "temperature-fixed" : 0,
                "diffuse-reflectance" : 0.5,
                "specular-reflectance" : 0,
                "diffuse-emission" : 1,
                "thickness" : 0.05000000074505806,
                "density" : 100,
                "heat-capacity" : 100,
                "animation-index" : -1,
                "heat-conductivity" : 10000,
                "traceable" : 1
            },
            "name" : "Inner",
            "primitives" : [
                {
                    "attributes" : {
                        "POSITION" : 0,
                        "NORMAL" : 1
                    },
                    "indices" : 2
                }
            ]
        },
        {
            "extras" : {
                "kelvin" : 0,
                "temperature-fixed" : 0,
                "diffuse-reflectance" : 0.5,
                "specular-reflectance" : 0,
                "diffuse-emission" : 1,
                "thickness" : 0.05000000074505806,
                "density" : 100,
                "heat-capacity" : 100,
                "animation-index" : -1,
                "heat-conductivity" : 10000,
                "traceable" : 1
            },
            "name" : "Outer",
            "primitives" : [
                {
                    "attributes" : {
                        "POSITION" : 3,
                        "NORMAL" : 4
                    },
                    "indices" : 5
                }
            ]
        }
    ],
    "accessors" : [
        {
            "bufferView" : 0,
            "componentType" : 5126,
            "count" : 156,
            "max" : [
                1,
                1,
                0.9987837076187134
            ],
            "min" : [
                -0.9829705953598022,
                -1,
                -0.9911609888076782
            ],
            "type" : "VEC3"
        },
        {
            "bufferView" : 1,
            "componentType" : 5126,
            "count" : 156,
            "type" : "VEC3"
        },
        {
            "bufferView" : 2,
            "componentType" : 5123,
            "count" : 924,
            "type" : "SCALAR"
        },
        {
            "bufferView" : 3,
            "componentType" : 5126,
            "count" : 600,
            "max" : [
                1.9944080114364624,
                2,
                1.9971259832382202
            ],
            "min" : [
                -1.9922820329666138,
                -2,
                -1.9913870096206665
            ],
            "type" : "VEC3"
        },
        {
            "bufferView" : 4,
            "componentType" : 5126,
            "count" : 600,
            "type" : "VEC3"
        },
        {
            "bufferView" : 5,
            "componentType" : 5123,
            "count" : 3588,
            "type" : "SCALAR"
        }
    ],
    "bufferViews" : [
        {
            "buffer" : 0,
            "byteLength" : 1872,
            "byteOffset" : 0
        },
        {
            "buffer" : 0,
            "byteLength" : 1872,
            "byteOffset" : 1872
        },
        {
            "buffer" : 0,
            "byteLength" : 1848,
            "byteOffset" : 3744
        },
        {
            "buffer" : 0,
            "byteLength" : 7200,
            "byteOffset" : 5592
        },
        {
            "buffer" : 0,
            "byteLength" : 7200,
            "byteOffset" : 12792
        },
        {
            "buffer" : 0,
            "byteLength" : 7176,
            "byteOffset" : 19992
        }
    ],
    "buffers" : [
        {
            "byteLength" : 27168,
            "uri" : "data:application/octet-stream;base64,"
        }
    ]
}
