{
    "asset" : {
        "generator" : "Khronos glTF Blender I/O v1.7.33",
        "version" : "2.0"
    },
    "scene" : 0,
    "scenes" : [
        {
            "extras" : {
                "thermal_tool" : {
                    "t_07_thickness" : 0.10000000149011612,
                    "t_08_density" : 1000.0,
                    "t_09_heat_capacity" : 1000.0,
                    "t_10_heat_conductivity" : 9.999999747378752e-05,
                    "t_01_kelvin" : 0.0,
                    "t_02_temperature_fixed" : 0
                }
            },
            "name" : "Scene",
            "nodes" : [
                0,
                1
            ]
        }
    ],
    "nodes" : [
        {
            "mesh" : 0,
            "name" : "citysurface"
        },
        {
            "mesh" : 1,
            "name" : "emittersurface"
        }
    ],
    "meshes" : [
        {
            "extras" : {
                "kelvin" : 0.0,
                "temperature-fixed" : 0,
                "diffuse-reflectance" : 0.5,
                "specular-reflectance" : 0.0,
                "diffuse-emission" : 1,
                "thickness" : 0.10000000149011612,
                "density" : 1000.0,
                "heat-capacity" : 1000.0,
                "animation-index" : -1.0,
                "heat-conductivity" : 9.999999747378752e-05,
                "traceable" : 1
            },
            "name" : "citysurface",
            "primitives" : [
                {
                    "attributes" : {
                        "POSITION" : 0,
                        "NORMAL" : 1
                    },
                    "indices" : 2
                }
            ]
        },
        {
            "extras" : {
                "kelvin" : 300.0,
                "temperature-fixed" : 1,
                "diffuse-reflectance" : 0.5,
                "specular-reflectance" : 0.0,
                "diffuse-emission" : 1,
                "thickness" : 0.10000000149011612,
                "density" : 1000.0,
                "heat-capacity" : 1000.0,
                "animation-index" : -1.0,
                "heat-conductivity" : 9.999999747378752e-05,
                "traceable" : 1
            },
            "name" : "emittersurface",
            "primitives" : [
                {
                    "attributes" : {
                        "POSITION" : 3,
                        "NORMAL" : 4
                    },
                    "indices" : 5
                }
            ]
        }
    ],
    "accessors" : [
        {
            "bufferView" : 0,
            "componentType" : 5126,
            "count" : 2924,
            "max" : [
                35.721588134765625,
                15.42905044555664,
                22.679079055786133
            ],
            "min" : [
                -33.73228073120117,
                0.02535003051161766,
                -25.455930709838867
            ],
            "type" : "VEC3"
        },
        {
            "bufferView" : 1,
            "componentType" : 5126,
            "count" : 2924,
            "type" : "VEC3"
        },
        {
            "bufferView" : 2,
            "componentType" : 5123,
            "count" : 17394,
            "type" : "SCALAR"
        },
        {
            "bufferView" : 3,
            "componentType" : 5126,
            "count" : 32,
            "max" : [
                45.516780853271484,
                45.516780853271484,
                7.880718231201172
            ],
            "min" : [
                34.371768951416016,
                34.371768951416016,
                -7.880718231201172
            ],
            "type" : "VEC3"
        },
        {
            "bufferView" : 4,
            "componentType" : 5126,
            "count" : 32,
            "type" : "VEC3"
        },
        {
            "bufferView" : 5,
            "componentType" : 5123,
            "count" : 138,
            "type" : "SCALAR"
        }
    ],
    "bufferViews" : [
        {
            "buffer" : 0,
            "byteLength" : 35088,
            "byteOffset" : 0
        },
        {
            "buffer" : 0,
            "byteLength" : 35088,
            "byteOffset" : 35088
        },
        {
            "buffer" : 0,
            "byteLength" : 34788,
            "byteOffset" : 70176
        },
        {
            "buffer" : 0,
            "byteLength" : 384,
            "byteOffset" : 104964
        },
        {
            "buffer" : 0,
            "byteLength" : 384,
            "byteOffset" : 105348
        },
        {
            "buffer" : 0,
            "byteLength" : 276,
            "byteOffset" : 105732
        }
    ],
    "buffers" : [
        {
            "byteLength" : 106008,
            "uri" : "data:application/octet-stream;base64,"
        }
    ]
}
